<svg xmlns="http://www.w3.org/2000/svg" width="109" height="95" viewBox="0 0 109 95">
<style type="text/css">
	.st1{fill:#FFFFFF;}
</style>
    <path class='st1' d="M84.129 74.22l-8.62 5.994L12.025 36.28c-.011-.085-.017-.17-.025-.256v-3.919c.006-1.269.004-2.539 0-3.808v-3.994l72.129 49.918zM66.412 17.523c-3.832 2.63-7.7 5.208-11.532 7.84-.518.353-.873.361-1.393 0-4.737-3.301-9.5-6.562-14.242-9.855-4.994-3.467-9.973-6.96-14.962-10.437-2.357-1.644-4.716-3.285-7.074-4.928H.086c.908.639 1.657 1.172 2.411 1.695 4.471 3.107 8.947 6.209 13.417 9.317 4.425 3.079 8.847 6.161 13.269 9.244 4.16 2.901 8.313 5.813 12.478 8.705 3.955 2.746 7.927 5.465 11.877 8.217.434.303.73.295 1.162 0 3.196-2.194 6.421-4.344 9.617-6.537 7.905-5.426 15.797-10.872 23.698-16.302 5.743-3.946 11.49-7.883 17.235-11.828 1.188-.816 2.375-1.647 3.619-2.51H91.677C83.256 5.934 74.84 11.736 66.412 17.521zm-54.32 36.004c-.06.15-.09.19-.09.229L12 56.159v4.796c.001 1.435.002 2.87.008 4.305 0 .078.027.165.064.25l42.374 29.326c.013 0 .027-.008.04-.01l8.621-5.994-51.015-35.306zm84.65-29.198L65.206 46.193c.158.176.23.295.336.37 2.663 1.891 5.326 3.782 8.004 5.653.064.046.176.059.288.05l22.833-15.83c.034-.066.055-.14.075-.213V24.328zm.023 29.656l-10.53 7.288 8.193 5.82 2.337-1.625V53.984z"/>
</svg>
